<svg viewBox="0 0 208 128" xmlns="http://www.w3.org/2000/svg">
  <style>
    .bg { fill: none; stroke: #24292e; stroke-width: 10; }
    .fg { fill: #24292e; }
    @media (prefers-color-scheme: dark) {
      .bg { stroke: #f0f6fc; }
      .fg { fill: #f0f6fc; }
    }
  </style>
  <path class="bg" d="M15 5h178a10 10 0 0 1 10 10v98a10 10 0 0 1-10 10H15a10 10 0 0 1-10-10V15A10 10 0 0 1 15 5z"/>
  <path class="fg" d="M 108.832 37.309 L 99.360 64.649 C 99.359 64.654 99.358 64.659 99.356 64.664 L 87.671 97.279 C 87.514 97.716 87.178 97.996 86.807 97.998 L 86.417 97.999 C 86.044 98.000 85.703 97.718 85.546 97.278 L 73.942 64.666 L 63.998 37.100 V 96.757 C 63.998 97.443 63.569 97.999 63.041 97.999 H 30.000 C 30.000 97.999 30.000 97.443 30.000 96.757 V 31.241 C 30.000 30.556 30.000 30.000 30.000 30.000 C 30.000 30.000 30.000 30.556 30.000 31.241 V 95.516 H 62.085 V 65.381 H 30.956 C 30.428 65.381 30.000 64.825 30.000 64.140 C 30.000 63.454 30.428 62.898 30.956 62.898 H 62.085 V 32.764 H 30.956 C 30.428 32.764 30.000 32.208 30.000 31.523 C 30.000 30.837 30.428 30.281 30.956 30.281 H 63.041 L 63.110 30.285 C 63.454 30.317 63.759 30.587 63.907 30.996 L 75.415 62.898 H 97.870 L 108.916 31.014 C 109.070 30.568 109.411 30.281 109.788 30.281 H 110.000 C 110.000 30.281 110.000 30.452 110.000 30.746 Z M 86.611 94.350 L 96.989 65.381 H 76.303 L 86.611 94.350 Z M155 98 L125 65 H145 V30 H165 V65 H185 Z"/>
</svg>
